<svg width="29" height="29" viewBox="0 0 29 29" fill="none" xmlns="http://www.w3.org/2000/svg">
<path d="M14.1667 0C6.34667 0 0 6.34667 0 14.1667C0 21.9867 6.34667 28.3333 14.1667 28.3333C21.9867 28.3333 28.3333 21.9867 28.3333 14.1667C28.3333 6.34667 21.9867 0 14.1667 0ZM20.74 9.63333C20.5275 11.8717 19.6067 17.3117 19.1392 19.8192C18.9408 20.8817 18.5442 21.2358 18.1758 21.2783C17.3542 21.3492 16.7308 20.74 15.9375 20.2158C14.6908 19.3942 13.9825 18.8842 12.7783 18.0908C11.3758 17.17 12.2825 16.66 13.09 15.8383C13.3025 15.6258 16.9292 12.325 17 12.0275C17.0098 11.9824 17.0085 11.9357 16.9962 11.8912C16.9838 11.8468 16.9608 11.806 16.9292 11.7725C16.8442 11.7017 16.7308 11.73 16.6317 11.7442C16.5042 11.7725 14.5208 13.09 10.6533 15.6967C10.0867 16.0792 9.57666 16.2775 9.12333 16.2633C8.61333 16.2492 7.65 15.98 6.9275 15.7392C6.035 15.4558 5.34083 15.3 5.3975 14.8042C5.42583 14.5492 5.78 14.2942 6.44583 14.025C10.5825 12.2258 13.3308 11.0358 14.705 10.4692C18.6433 8.82583 19.4508 8.5425 19.9892 8.5425C20.1025 8.5425 20.3717 8.57083 20.5417 8.7125C20.6833 8.82583 20.7258 8.98166 20.74 9.095C20.7258 9.18 20.7542 9.435 20.74 9.63333Z" fill="white"/>
</svg>
